<svg width="44" height="44" viewBox="0 0 44 44" fill="none" xmlns="http://www.w3.org/2000/svg">
<mask id="mask0_1671_1402" style="mask-type:alpha" maskUnits="userSpaceOnUse" x="8" y="8" width="28" height="28">
<rect x="8" y="8" width="28" height="28" fill="#D9D9D9"/>
</mask>
<g mask="url(#mask0_1671_1402)">
<path fill-rule="evenodd" clip-rule="evenodd" d="M16.75 18.5C17.9317 22.7778 18.8889 23.735 23.1666 24.9167C18.8889 26.0984 17.9317 27.0556 16.75 31.3334C15.5682 27.0556 14.6111 26.0984 10.3333 24.9167C14.6111 23.735 15.5682 22.7778 16.75 18.5ZM16.75 23.1177C16.511 23.4722 16.2443 23.8022 15.9399 24.1066C15.6357 24.4108 15.3064 24.6778 14.9521 24.9167C15.3064 25.1555 15.6357 25.4226 15.9399 25.7267C16.2441 26.0309 16.5111 26.3603 16.75 26.7145C16.9888 26.3603 17.2559 26.0309 17.56 25.7267C17.8644 25.4223 18.1944 25.1557 18.549 24.9167C18.1944 24.6777 17.8644 24.411 17.56 24.1066C17.2556 23.8022 16.989 23.4722 16.75 23.1177Z" fill="currentColor"/>
<path fill-rule="evenodd" clip-rule="evenodd" d="M27.3844 23.84V29.2917H29.7178V31.0417H23.3011V29.2917H25.6344V23.84L19.3533 14.4167H33.6666L27.3844 23.84ZM24.0599 18.5H28.9601L30.5711 16.1667H22.4489L24.0599 18.5Z" fill="currentColor"/>
<path fill-rule="evenodd" clip-rule="evenodd" d="M13.8333 12.6667C14.4779 15 15 15.5221 17.3333 16.1667C15 16.8113 14.4779 17.3334 13.8333 19.6667C13.1887 17.3334 12.6666 16.8113 10.3333 16.1667C12.6666 15.5221 13.1887 15 13.8333 12.6667ZM13.8333 15.5446C13.7429 15.6594 13.6466 15.7701 13.5416 15.875C13.4369 15.9798 13.3269 16.0764 13.2124 16.1667C13.3269 16.257 13.4369 16.3536 13.5416 16.4584C13.6464 16.5631 13.743 16.6731 13.8333 16.7876C13.9236 16.6731 14.0202 16.5631 14.125 16.4584C14.2299 16.3534 14.3406 16.2571 14.4554 16.1667C14.3406 16.0763 14.2299 15.98 14.125 15.875C14.02 15.7701 13.9237 15.6594 13.8333 15.5446Z" fill="currentColor"/>
</g>
</svg>
