<svg width="44" height="44" viewBox="0 0 44 44" fill="none" xmlns="http://www.w3.org/2000/svg">
<mask id="mask0_1671_700" style="mask-type:alpha" maskUnits="userSpaceOnUse" x="8" y="8" width="28" height="28">
<rect x="8" y="8" width="28" height="28" fill="#D9D9D9"/>
</mask>
<g mask="url(#mask0_1671_700)">
<path d="M15.0268 28.1743C16.0185 27.4385 17.0988 26.8574 18.2678 26.431C19.4366 26.0048 20.6807 25.7917 22 25.7917C23.3193 25.7917 24.5634 26.0048 25.7322 26.431C26.9012 26.8574 27.9815 27.4385 28.9732 28.1743C29.6984 27.3771 30.2731 26.4543 30.6972 25.4058C31.1213 24.3574 31.3333 23.2221 31.3333 22C31.3333 19.4139 30.4243 17.2118 28.6062 15.3938C26.7882 13.5757 24.5861 12.6667 22 12.6667C19.4139 12.6667 17.2118 13.5757 15.3937 15.3938C13.5757 17.2118 12.6667 19.4139 12.6667 22C12.6667 23.2221 12.8787 24.3574 13.3028 25.4058C13.7269 26.4543 14.3015 27.3771 15.0268 28.1743ZM22.0003 22.875C20.9351 22.875 20.0369 22.5095 19.3056 21.7784C18.5741 21.047 18.2083 20.1488 18.2083 19.0836C18.2083 18.0185 18.5739 17.1202 19.305 16.3889C20.0363 15.6574 20.9345 15.2917 21.9997 15.2917C23.0649 15.2917 23.9631 15.6572 24.6944 16.3884C25.4259 17.1197 25.7917 18.0179 25.7917 19.0831C25.7917 20.1482 25.4261 21.0465 24.695 21.7778C23.9637 22.5093 23.0654 22.875 22.0003 22.875ZM22 33.0834C20.461 33.0834 19.0172 32.7939 17.6687 32.2151C16.3203 31.6362 15.1473 30.8479 14.1498 29.8502C13.1521 28.8527 12.3638 27.6797 11.7849 26.3313C11.2061 24.9828 10.9167 23.539 10.9167 22C10.9167 20.461 11.2061 19.0172 11.7849 17.6688C12.3638 16.3203 13.1521 15.1473 14.1498 14.1498C15.1473 13.1521 16.3203 12.3638 17.6687 11.785C19.0172 11.2061 20.461 10.9167 22 10.9167C23.539 10.9167 24.9828 11.2061 26.3312 11.785C27.6797 12.3638 28.8527 13.1521 29.8502 14.1498C30.8479 15.1473 31.6362 16.3203 32.215 17.6688C32.7939 19.0172 33.0833 20.461 33.0833 22C33.0833 23.539 32.7939 24.9828 32.215 26.3313C31.6362 27.6797 30.8479 28.8527 29.8502 29.8502C28.8527 30.8479 27.6797 31.6362 26.3312 32.2151C24.9828 32.7939 23.539 33.0834 22 33.0834ZM22 31.3334C23.0529 31.3334 24.0681 31.164 25.0456 30.8253C26.023 30.4864 26.8909 30.0126 27.6493 29.404C26.8909 28.8175 26.0343 28.3606 25.0794 28.0331C24.1243 27.7055 23.0978 27.5417 22 27.5417C20.9022 27.5417 19.8738 27.7036 18.915 28.0273C17.9562 28.3513 17.1014 28.8101 16.3507 29.404C17.109 30.0126 17.9769 30.4864 18.9544 30.8253C19.9319 31.164 20.9471 31.3334 22 31.3334ZM22 21.125C22.5804 21.125 23.0657 20.9298 23.456 20.5394C23.8464 20.1491 24.0417 19.6638 24.0417 19.0834C24.0417 18.5029 23.8464 18.0176 23.456 17.6274C23.0657 17.2369 22.5804 17.0417 22 17.0417C21.4196 17.0417 20.9342 17.2369 20.544 17.6274C20.1535 18.0176 19.9583 18.5029 19.9583 19.0834C19.9583 19.6638 20.1535 20.1491 20.544 20.5394C20.9342 20.9298 21.4196 21.125 22 21.125Z" fill="currentColor"/>
</g>
</svg>
